<svg width="192" height="112" fill="none" xmlns="http://www.w3.org/2000/svg"><path d="M48.245 112c29.103 0 48.556-24.597 48.556-56 0-31.713-19.453-56-48.245-56C19.61 0 0 24.597 0 56c0 31.713 19.142 56 48.245 56zm.311-21.503C34.083 90.497 24.59 75.801 24.59 56c0-20.11 9.338-34.497 23.656-34.497S72.212 36.353 72.212 56c0 19.956-9.182 34.497-23.656 34.497zm62.828 19.647H192V89.569h-47.467l17.742-13.613c19.298-14.851 28.636-23.823 28.636-41.923C190.911 13.46 175.97.31 153.404.31c-19.454 0-29.881 7.89-40.619 22.431L129.593 36.2c8.092-9.9 13.851-14.541 22.255-14.541 8.559 0 14.629 4.95 14.629 14.077 0 8.972-5.292 14.85-18.831 25.989L111.384 91.27v18.873z" opacity=".3" fill="#fff"/></svg>