<svg width="192" height="112" fill="none" xmlns="http://www.w3.org/2000/svg"><path d="M48.402 112c29.197 0 48.714-24.597 48.714-56 0-31.713-19.517-56-48.402-56C19.673 0 0 24.597 0 56c0 31.713 19.205 56 48.402 56zm.312-21.503C34.194 90.497 24.67 75.801 24.67 56c0-20.11 9.369-34.497 23.733-34.497S72.447 36.353 72.447 56c0 19.956-9.212 34.497-23.733 34.497zM152.654 112C177.011 112 192 96.995 192 76.575c0-20.42-14.521-28.155-29.353-30.63L190.283 19.8V1.856h-73.852v20.42h42.937l-26.075 25.99 3.747 15.16h9.993c13.428 0 21.391 4.95 21.391 13.767 0 8.354-6.402 13.459-15.458 13.459-11.085 0-18.892-4.641-26.387-12.995l-16.55 15.625C119.397 104.265 132.981 112 152.654 112z" opacity=".3" fill="#75ACFE"/></svg>