<svg width="472" height="336" fill="none" xmlns="http://www.w3.org/2000/svg"><g filter="url(#filter0_d)"><path d="M20 24a8 8 0 018-8h416a8 8 0 018 8v280a8 8 0 01-8 8H28a8 8 0 01-8-8V24z" fill="#A0C4FA"/></g><path d="M308.245 136c29.103 0 48.556-24.597 48.556-56 0-31.713-19.453-56-48.245-56C279.609 24 260 48.597 260 80c0 31.713 19.142 56 48.245 56zm.311-21.503c-14.473 0-23.967-14.696-23.967-34.497 0-20.11 9.338-34.497 23.656-34.497S332.212 60.353 332.212 80c0 19.956-9.182 34.497-23.656 34.497zm62.828 19.647H452v-20.575h-47.467l17.742-13.613c19.298-14.851 28.636-23.823 28.636-41.923 0-20.574-14.941-33.724-37.507-33.724-19.454 0-29.881 7.89-40.619 22.431l16.808 13.46c8.092-9.9 13.851-14.541 22.255-14.541 8.559 0 14.629 4.95 14.629 14.077 0 8.972-5.292 14.85-18.831 25.989l-36.262 29.547v18.873z" opacity=".3" fill="#fff"/><defs><filter id="filter0_d" x="0" y="0" width="472" height="336" filterUnits="userSpaceOnUse" color-interpolation-filters="sRGB"><feFlood flood-opacity="0" result="BackgroundImageFix"/><feColorMatrix in="SourceAlpha" values="0 0 0 0 0 0 0 0 0 0 0 0 0 0 0 0 0 0 127 0"/><feOffset dy="4"/><feGaussianBlur stdDeviation="10"/><feColorMatrix values="0 0 0 0 0.645833 0 0 0 0 0.645833 0 0 0 0 0.645833 0 0 0 0.25 0"/><feBlend in2="BackgroundImageFix" result="effect1_dropShadow"/><feBlend in="SourceGraphic" in2="effect1_dropShadow" result="shape"/></filter></defs></svg>