<svg width="432" height="296" fill="none" xmlns="http://www.w3.org/2000/svg"><path d="M0 8a8 8 0 018-8h416a8 8 0 018 8v280a8 8 0 01-8 8H8a8 8 0 01-8-8V8z" fill="#fff"/><path d="M288.402 120c29.197 0 48.714-24.597 48.714-56 0-31.713-19.517-56-48.402-56C259.673 8 240 32.597 240 64c0 31.713 19.205 56 48.402 56zm.312-21.503c-14.52 0-24.045-14.696-24.045-34.497 0-20.11 9.368-34.497 23.733-34.497 14.364 0 24.045 14.85 24.045 34.497 0 19.956-9.212 34.497-23.733 34.497zM392.654 120C417.011 120 432 104.994 432 84.575c0-20.42-14.521-28.155-29.353-30.63L430.283 27.8V9.856h-73.852v20.42h42.937l-26.075 25.99 3.747 15.16h9.993c13.428 0 21.391 4.95 21.391 13.767 0 8.354-6.402 13.459-15.458 13.459-11.085 0-18.892-4.641-26.387-12.995l-16.55 15.625C359.397 112.265 372.981 120 392.654 120z" opacity=".3" fill="#75ACFE"/></svg>