<svg width="472" height="336" fill="none" xmlns="http://www.w3.org/2000/svg"><g filter="url(#filter0_d)"><g filter="url(#filter1_d)"><path d="M20 24a8 8 0 018-8h416a8 8 0 018 8v280a8 8 0 01-8 8H28a8 8 0 01-8-8V24z" fill="#F8DB73"/></g><path d="M341.521 136c29.873 0 49.841-24.597 49.841-56 0-31.713-19.968-56-49.521-56C312.128 24 292 48.597 292 80c0 31.713 19.649 56 49.521 56zm.32-21.503c-14.856 0-24.601-14.696-24.601-34.497 0-20.11 9.585-34.497 24.281-34.497 14.697 0 24.601 14.85 24.601 34.497 0 19.956-9.425 34.497-24.281 34.497zm85.878 19.647H452V25.083h-16.773l-32.109 9.282 5.111 19.491 19.49-4.64v84.928z" opacity=".3" fill="#fff"/></g><defs><filter id="filter0_d" x="16" y="16" width="440" height="304" filterUnits="userSpaceOnUse" color-interpolation-filters="sRGB"><feFlood flood-opacity="0" result="BackgroundImageFix"/><feColorMatrix in="SourceAlpha" values="0 0 0 0 0 0 0 0 0 0 0 0 0 0 0 0 0 0 127 0"/><feOffset dy="4"/><feGaussianBlur stdDeviation="2"/><feColorMatrix values="0 0 0 0 0 0 0 0 0 0 0 0 0 0 0 0 0 0 0.25 0"/><feBlend in2="BackgroundImageFix" result="effect1_dropShadow"/><feBlend in="SourceGraphic" in2="effect1_dropShadow" result="shape"/></filter><filter id="filter1_d" x="0" y="0" width="472" height="336" filterUnits="userSpaceOnUse" color-interpolation-filters="sRGB"><feFlood flood-opacity="0" result="BackgroundImageFix"/><feColorMatrix in="SourceAlpha" values="0 0 0 0 0 0 0 0 0 0 0 0 0 0 0 0 0 0 127 0"/><feOffset dy="4"/><feGaussianBlur stdDeviation="10"/><feColorMatrix values="0 0 0 0 0.645833 0 0 0 0 0.645833 0 0 0 0 0.645833 0 0 0 0.25 0"/><feBlend in2="BackgroundImageFix" result="effect1_dropShadow"/><feBlend in="SourceGraphic" in2="effect1_dropShadow" result="shape"/></filter></defs></svg>