<svg width="104" height="104" fill="none" xmlns="http://www.w3.org/2000/svg"><g opacity=".6" fill-rule="evenodd" clip-rule="evenodd"><path d="M103.559 52.257c0 28.576-23.165 51.741-51.741 51.741C23.24 103.998.076 80.833.076 52.257S23.241.516 51.818.516c28.576 0 51.741 23.165 51.741 51.74z" fill="#FFC246"/><path d="M74.978 45.191c1.07-7.267-4.409-11.195-11.93-13.814l2.432-9.82-6.062-1.54-2.399 9.625-4.733-1.146 2.367-9.657-5.933-1.505-2.43 9.82-11.995-2.946-1.459 6.416s4.409 1.015 4.312 1.08c1.675.252 2.875 1.764 2.755 3.47l-6.483 27.04a2.188 2.188 0 01-1.066 1.29c-.51.27-1.107.324-1.657.15L26.06 62.54l-2.95 6.874 7.748 1.964 4.246 1.114-2.463 9.82 5.932 1.473 2.431-9.82 4.798 1.374-2.431 9.821 5.964 1.506 2.464-9.984c10.146 1.964 17.764 1.178 20.973-8.086 2.594-7.464 0-11.785-5.446-14.567 4.24-.853 7.381-4.481 7.65-8.839zM61.395 64.44c-1.848 7.463-14.296 3.273-18.315 2.422l3.242-13.094c3.922.884 16.856 2.848 14.943 10.672h.13zm1.816-19.347c-1.653 6.776-12.027 3.273-15.365 2.488l2.82-11.981c3.371.85 14.166 2.422 12.415 9.493h.13z" fill="#fff"/></g></svg>