<svg width="56" height="56" fill="none" xmlns="http://www.w3.org/2000/svg"><g opacity=".6" fill-rule="evenodd" clip-rule="evenodd"><path d="M55.721 27.86c0 15.388-12.473 27.861-27.86 27.861C12.473 55.721 0 43.248 0 27.861 0 12.473 12.473 0 27.86 0c15.388 0 27.861 12.473 27.861 27.86z" fill="#5D8BAD"/><path d="M26.76 11.245h.005c.42-.019.969-.043 1.384-.045 1.472.006 2.24.582 1.94 1.712-.37 1.387-2.263 3.269-4.805 4.955-.48.229-.976-.42-.874-.695.02-.04.05-.076.084-.104 2.22-1.473 3.873-3.116 4.2-4.327.287-1.097-.576-1.592-2.15-1.478l.216-.018zm-.38.032l.163-.014a7.144 7.144 0 00-.163.014zm9.876 3.794c.285-1.062-.07-1.795-.924-2.191-.274-.131-.613-.274-.934-.41l-.264-.11a3.958 3.958 0 00-.205-.085l.205.084c.807.373 1.143 1.063.876 2.065-.797 2.997-6.685 7.645-13.146 10.383a30.83 30.83 0 01-3.449 1.245.527.527 0 00-.252.19c-.259.37-.158 1.266.461 1.177a32.696 32.696 0 003.665-1.32c6.867-2.908 13.119-7.844 13.967-11.028zm6.508 4.89l.206.394c.127.346.173.472.191.603.01.075.011.151.013.271a.096.096 0 01-.028.058c-.187-.063-.64-.924-.684-1.3a1.913 1.913 0 00-.22-.909l.522.882zm-.588-.994l.066.111a1.642 1.642 0 00-.066-.111zm2.096 4.792c.097.374.084.81-.048 1.308-.84 3.137-6.18 7.737-12.646 11.131-.722.302-1.165-.243-.992-.709a.79.79 0 01.369-.406c6.575-3.45 12.006-8.127 12.852-11.316.142-.53.15-.992.035-1.383l.059.179c.129.391.276.837.37 1.196zm-.465-1.481l.035.106a1.699 1.699 0 00-.035-.106zm-28.613-4.679c-.016.06-.028.122-.036.183a.777.777 0 00.128.576c.519.706 2.467.544 4.995-.523.795-.34 1.567-.731 2.311-1.172.16-.139.047-.353-.007-.433-.054-.08-.32-.382-.548-.298-.591.349-1.205.659-1.837.927-2.008.853-3.558.982-3.97.42-.112-.15-.14-.35-.073-.603.102-.317.267-.611.484-.865.377-.452.804-.86 1.273-1.217a19.657 19.657 0 013.805-2.146c.169-.072.332-.133.495-.194l.143-.053c1.995-.653 3.302-.452 3.03.565-.083.315-.307.668-.643 1.07.143.148.92.327 1.26.16.414-.475.694-.924.799-1.315.31-1.168-1.028-1.48-3.17-.906-.167.045-.263.073-.38.108l-.173.052a16.522 16.522 0 00-1.078.371c-.17.063-.287.112-.513.206l-.038.015c-.155.067-.232.1-.353.155l-.076.034c-.17.077-.24.111-.409.193a12.074 12.074 0 00-.387.197 9.407 9.407 0 00-.618.34l-.129.075a13.957 13.957 0 00-.616.381l-.12.078c-.147.096-.206.137-.347.236l-.024.016a13.29 13.29 0 00-.303.219l-.088.064c-.121.089-.186.14-.287.218l-.101.079c-.152.12-.227.183-.337.275l-.091.076c-.169.14-.244.204-.426.372-.337.3-.65.626-.935.976a3.782 3.782 0 00-.509.806 1.896 1.896 0 00-.1.282zm-1.9 2.672c.01-.09.028-.178.051-.265a2.82 2.82 0 01.146-.407c.089-.183.222-.42.325-.595a6.07 6.07 0 01.281-.421l.101-.144.038-.055c.125-.179.253-.363.365-.515l.231-.3.004-.005a9.14 9.14 0 00-.349.496l-.052.078a3.148 3.148 0 00-.366.797c-.106.397-.06.715.116.955.542.74 2.33.724 4.743-.077.35-.05.317.594.316.6-.03.352-.076.882-3.146 1.26-.88.108-2.047.1-2.604-.552l-.013-.018a1.032 1.032 0 01-.162-.356l-.003-.014a2.008 2.008 0 01-.022-.462zm-1.224 2.436c-.03.11-.051.222-.066.336-.052.42.03.77.234 1.046.948 1.291 4.507.995 9.127-.962 5.85-2.48 11.184-6.692 11.908-9.407.262-.98-.112-1.628-1.025-1.964l-.028-.008c-.158-.043-.327-.09-.618-.15-.393-.083-.412-.082-.56-.072h-.003c.785.289 1.126.884.888 1.779-.662 2.482-5.538 6.333-10.89 8.6-4.217 1.788-7.472 2.062-8.34.88-.232-.318-.292-.74-.152-1.268.033-.122.073-.242.122-.36-.15.346-.307.752-.442 1.1l-.07.18c-.033.09-.061.18-.085.27zm-.746 3.292l.135-.908.119-.604c.01-.046.022-.093.034-.14a4.19 4.19 0 00-.048.28l-.028.177c-.036.426.051.785.261 1.07.162.215.372.388.614.505.212.189.1.918.098.924-.037.222-.113.483-.258.46a1.757 1.757 0 01-.649-.559v.028a.547.547 0 01-.05-.084 1.154 1.154 0 00-.04-.07l-.03-.05c-.006-.013-.012-.022-.017-.03l-.015-.025a1.509 1.509 0 01-.106-.365.503.503 0 01-.008-.056 1.63 1.63 0 01-.011-.556v.003zm.045 3.993a.62.62 0 00.019.061v-.004l.007.018.012.03c.047.115.107.223.18.323v-.021c1.215 1.696 5.847 1.322 11.866-1.225 7.616-3.231 14.553-8.71 15.492-12.239.258-.965.04-1.685-.565-2.155l-.672-.504-.575-.388c.298.22.851.626.802 1.59-.274 5.52-21.655 18.675-26.422 13.572a1.666 1.666 0 01-.312-.908c.005.315.027.687.048 1.03l.016.278v.017a.593.593 0 01.006.1.038.038 0 01.004.022l.008.04a.478.478 0 01.01.044c.013.095.035.188.064.28l.012.04zm.886 3.61l-.014-.017-.005-.007-.005-.007-.01-.014a1.132 1.132 0 01-.238-.48 63.458 63.458 0 00-.105-.376c-.098-.354-.206-.74-.281-1.06.053.213.146.413.276.591l.02.026c1.311 1.716 6.112 1.307 12.316-1.32 7.917-3.36 15.128-9.053 16.107-12.725.223-.84.103-1.495-.308-1.974l.153.164.003.004.003.003c.264.283.554.596.775.858.411.488.53 1.157.304 2.004-.999 3.745-8.354 9.554-16.43 12.975-6.337 2.688-11.232 3.101-12.563 1.344l.002.012zm27.647-17.477l.106.114a1.68 1.68 0 00-.106-.114zM11.583 31.58l.014.06-.014-.06zm1.709 4.512c.21.454.28.504.28.504v-.004c.098.113.204.22.317.318 1.68 1.419 6.425.897 12.479-1.658 4.858-2.058 9.46-4.968 12.618-7.789.128-.179.321-.45.157-.893-.075-.205-.311-.651-.86-.362-3.157 2.817-7.75 5.72-12.601 7.776-6.459 2.735-11.442 3.15-12.768 1.344.11.24.228.48.353.718l.025.046zm1.838 2.706a17.173 17.173 0 01-.516-.635c.006.01.014.017.02.026a.467.467 0 01.022.025c.788.993 2.737 1.277 5.46.829.55-.03.91.429.977.553.076.145.156.4-.177.498-2.57.42-4.444.184-5.274-.702a32.681 32.681 0 01-.512-.599v.005zm2.085 2.093a2.024 2.024 0 01-.107-.084v-.004l.107.088zm0 0c1.577 1.158 5.578.75 10.69-1.274.77-.236 1.028.278 1.031.284.043.103.098.367-.336.582-4.905 1.942-8.751 2.34-10.294 1.25l-.338-.257a30.181 30.181 0 01-.753-.585zm22.637-1.337a2.03 2.03 0 01-.396.465c-1.602 1.288-3.715 2.563-5.928 3.501-1.866.79-3.497 1.212-4.704 1.274-.433.008-.983.009-1.456 0 1.392 0 3.374-.478 5.671-1.45 2.508-1.064 4.902-2.509 6.72-3.969a.741.741 0 01.14-.074l.036.067c-.023.063-.05.124-.083.182v.004zm-12.775 5.233c.093.007.191.007.29.007l-.29-.007zm-2.13-.26c4.581.735 16.087-4.998 18.595-10.121.15-.34.296-.781.426-1.175l.003-.008.06-.179c-1.023 2.816-6.386 6.981-12.253 9.468-3.624 1.535-6.62 2.083-8.287 1.676.441.114.99.235 1.42.33l.037.008zm19.744-14.58c-.038.31-.079.645-.125.913a2.713 2.713 0 01-.056.248c-.822 3.083-6.876 7.864-13.524 10.68-4.322 1.832-7.832 2.382-9.53 1.692l-.215-.1c-.383-.177-.83-.383-1.171-.562 5.832 2.43 23.831-7.406 24.69-13.492l-.02.22-.05.4zm-6.071 4.988c3.242-2.393 5.564-4.902 6.077-6.824.075-.266.11-.542.102-.818l-.03-.541-.1-.957c.034.34.002.684-.093 1.012-.53 1.989-2.933 4.588-6.293 7.065a.98.98 0 00-.34.547c-.08.374.152.838.677.516z" fill="#fff"/></g></svg>