<svg width="83" height="83" fill="none" xmlns="http://www.w3.org/2000/svg"><g opacity=".6" fill-rule="evenodd" clip-rule="evenodd"><path d="M52.81 71.281c-16.5 6.334-35.009-1.907-41.342-18.406-6.334-16.5 1.907-35.01 18.407-41.343C46.374 5.2 64.883 13.44 71.217 29.94c6.334 16.5-1.907 35.009-18.407 41.342z" fill="#1786C4"/><path d="M55.296 15.485l-6.05 2.322-5.801 13.463a7.782 7.782 0 01-10.449 4.011l-13.32-6.123-6.05 2.322 17.535 8.06a12.287 12.287 0 0016.498-6.333l7.637-17.723zM27.31 67.359l6.05-2.322 5.848-13.574a7.782 7.782 0 0110.449-4.01l13.428 6.173 6.05-2.322-17.643-8.11a12.287 12.287 0 00-16.498 6.332L27.311 67.36z" fill="#fff"/></g></svg>