<svg width="1495" height="1221" fill="none" xmlns="http://www.w3.org/2000/svg"><path fill-rule="evenodd" clip-rule="evenodd" d="M1383.06 512.533c-49.21 99.992-409.376 105.65-450.283 73.531-20.625-16.194-61.075-72.35-77.574-144.433-19.689-86.022 8.248-153.867 49.597-183.774 75.997-54.967 290.17-122.407 390.47-84.297 100.29 38.11 137 238.981 87.79 338.973z" fill="url(#paint0_linear)"/><path fill-rule="evenodd" clip-rule="evenodd" d="M1077.63 814.361c-87.22 177.207-725.533 187.259-798.028 130.344-36.552-28.697-108.235-128.211-137.47-255.954-34.888-152.445 14.63-272.68 87.912-325.682C364.736 265.651 744.312 146.12 922.058 213.65c177.742 67.53 242.792 423.504 155.572 600.711z" fill="url(#paint1_linear)"/><defs><linearGradient id="paint0_linear" x1="1345.12" y1="549.589" x2="1254.68" y2="392.949" gradientUnits="userSpaceOnUse"><stop stop-color="#07BEAA"/><stop offset="1" stop-color="#22AE0F"/></linearGradient><linearGradient id="paint1_linear" x1="1185.71" y1="876.249" x2="637" y2="504" gradientUnits="userSpaceOnUse"><stop offset="0" stop-color="#0043FF" stop-opacity=".49"/><stop offset="1" stop-color="#39D3EC" stop-opacity=".69"/></linearGradient></defs></svg>