<svg width="576" height="350" fill="none" xmlns="http://www.w3.org/2000/svg"><g clip-path="url(#clip0)" fill-rule="evenodd" clip-rule="evenodd"><path d="M505.068 294.195c-54.388 36.88-239.226-67.342-250.599-96.059-5.735-14.479-9.818-55.444 2.957-97.49 15.245-50.178 49.375-76.823 79.186-79.932C391.403 15 520.131 43.963 559.949 93.432c39.818 49.47-.493 163.883-54.881 200.763z" fill="url(#paint0_linear)"/><path d="M419.537 481.3C322.569 546.036-6.973 363.093-27.25 312.686c-10.224-25.415-17.503-97.322 5.273-171.127C5.203 53.481 66.052 6.711 119.2 1.254c97.686-10.03 327.191 40.809 398.182 127.643 70.991 86.835-.879 287.667-97.846 352.403z" fill="url(#paint1_linear)"/></g><defs><linearGradient id="paint0_linear" x1="474.889" y1="302" x2="474.889" y2="194.394" gradientUnits="userSpaceOnUse"><stop stop-color="#fff"/><stop offset="1" stop-color="#BCF4FF" stop-opacity=".8"/></linearGradient><linearGradient id="paint1_linear" x1="587.72" y1="544.759" x2="587.72" y2="-21.085" gradientUnits="userSpaceOnUse"><stop stop-color="#39D3EC" stop-opacity=".9"/><stop offset="1" stop-color="#50B8E4" stop-opacity=".9"/></linearGradient><clipPath id="clip0"><path fill="#fff" d="M0 0h576v350H0z"/></clipPath></defs></svg>