<svg width="1920" height="544" fill="none" xmlns="http://www.w3.org/2000/svg"><g opacity=".15" clip-path="url(#clip0)"><path fill-rule="evenodd" clip-rule="evenodd" d="M7.307 385.393l110.778 29.954 112.625-93.386 117.196-32.597 108.053-111.886 110.778-28.192 112.625 81.052 110.778 44.049 114.471-33.477 110.779-10.572 112.62 35.239 113.75-36.12 109.66 60.788 112.62 17.62 112.63-66.955h110.77l112.63-10.572 112.62-68.718.86 382.38L7.307 448.824" fill="url(#paint0_linear)" fill-opacity=".1"/><path fill-rule="evenodd" clip-rule="evenodd" d="M566.952 148.208l112.894 81.246 110.341 43.876 112.387-33.407 112.916-10.599 112.52 33.447 113.86-34.394 109.88 60.908 112.09 17.536 112.55-66.911h112.85l110.51-10.546 112.42-68.598 1.04 1.708-112.82 68.837-111.05 10.599h-112.4l-112.7 66.999-113.15-17.703-109.45-60.67-113.62 34.323-112.73-33.508-112.334 10.545-112.863 33.549-111.215-44.224-112.356-80.857-111.886 26.256-106.191 113.632-117.253 32.613-109.147 93.569L7.082 389.891l.45-1.949 113.978 26.316 108.717-93.201 117.14-32.581 106.222-113.664 113.363-26.604z" fill="#990505"/><path d="M15 389c0 3.25-2.844 6-6.5 6S2 392.25 2 389s2.844-6 6.5-6 6.5 2.75 6.5 6zm112 26a6 6 0 11-12 0 6 6 0 0112 0zm108-91.5a6.5 6.5 0 11-13 0 6.5 6.5 0 0113 0zM460 178a7 7 0 11-14 0 7 7 0 0114 0zM351 289.5a6.5 6.5 0 11-13 0 6.5 6.5 0 0113 0zm220.945-138.452c0 3.289-2.833 6.048-6.443 6.048-3.611 0-6.443-2.759-6.443-6.048 0-3.29 2.832-6.048 6.443-6.048 3.61 0 6.443 2.758 6.443 6.048zm112.819 79.29c0 3.289-2.832 6.047-6.443 6.047-3.61 0-6.443-2.758-6.443-6.047 0-3.29 2.833-6.048 6.443-6.048 3.611 0 6.443 2.758 6.443 6.048zm112.88 42.287c0 3.29-2.833 6.048-6.443 6.048-3.61 0-6.443-2.758-6.443-6.048 0-3.289 2.833-6.048 6.443-6.048 3.61 0 6.443 2.759 6.443 6.048zm112.933-31.264a6.5 6.5 0 11-13 0 6.5 6.5 0 0113 0zm113.803-10.071c0 3.866-3.14 7-7 7-3.87 0-7-3.134-7-7s3.13-7 7-7c3.86 0 7 3.134 7 7zM1135 262c0 3.314-2.69 6-6 6s-6-2.686-6-6 2.69-6 6-6 6 2.686 6 6zm113-32c0 3.314-2.69 6-6 6s-6-2.686-6-6 2.69-6 6-6 6 2.686 6 6zm114 61c0 3.314-2.69 6-6 6s-6-2.686-6-6 2.69-6 6-6 6 2.686 6 6zm107 15.5c0 3.038-2.46 5.5-5.5 5.5s-5.5-2.462-5.5-5.5 2.46-5.5 5.5-5.5 5.5 2.462 5.5 5.5zm116-65.5c0 3.314-2.69 6-6 6s-6-2.686-6-6 2.69-6 6-6 6 2.686 6 6zm116-2c0 3.314-2.69 6-6 6s-6-2.686-6-6 2.69-6 6-6 6 2.686 6 6zm110-11c0 3.866-3.13 7-7 7s-7-3.134-7-7 3.13-7 7-7 7 3.134 7 7zm111-68.5c0 3.038-2.46 5.5-5.5 5.5s-5.5-2.462-5.5-5.5 2.46-5.5 5.5-5.5 5.5 2.462 5.5 5.5z" fill="#fff" stroke="#990505" stroke-width="2"/></g><g opacity=".15" clip-path="url(#clip1)"><path fill-rule="evenodd" clip-rule="evenodd" d="M5.959 275.07l110.251-58.323 113.988 34.994 113.054-104.085L453.503 18.447 567.491 47.16l109.317 88.831 113.988 55.632 112.12-59.221L1011.3 109.97 1126.22 4.988l112.12 81.653 113.99 130.106 110.25 41.275 114.92-117.993 108.99-117.096 110.58 24.227 113.99 12.562V407H5.959" fill="url(#paint1_linear)" fill-opacity=".1"/><path fill-rule="evenodd" clip-rule="evenodd" d="M1128.13 4.09l112.66 82.142 113.68 129.906 109.19 40.927 114.24-117.422.01-.017 109.16-117.412 110.87 24.32 113.72 12.547-.22 1.988-113.82-12.559-109.87-24.098-108.39 116.593-.01.008v.008l-115.16 118.376-110.89-41.563-113.87-130.118L1128.28 6.67l-114.31 104.54-108.303 22.443-112.23 59.349-114.332-55.865-109.026-88.7-112.954-28.486L347.447 148.64 234.142 253.079l-113.931-35.017L9.392 275.215l-.917-1.778L120.02 215.91l113.612 34.92 112.372-103.579L456.409 17.708l114.589 28.898 109.191 88.835 113.212 55.317 111.582-59.006 108.047-22.389L1128.13 4.09z" fill="#75ACFE"/><path d="M12 273.5a6.5 6.5 0 11-13 0 6.5 6.5 0 0113 0zm113-57a6.5 6.5 0 11-13 0 6.5 6.5 0 0113 0zm114 34a6.5 6.5 0 11-13 0 6.5 6.5 0 0113 0zm224-231a6.5 6.5 0 11-13 0 6.5 6.5 0 0113 0zm-114 132a6.5 6.5 0 11-13 0 6.5 6.5 0 0113 0zM572.908 46.952a6.5 6.5 0 11-13 0 6.5 6.5 0 0113 0zM685 133.5a6.5 6.5 0 11-13 0 6.5 6.5 0 0113 0zm114 56a6.5 6.5 0 11-13 0 6.5 6.5 0 0113 0zm112.43-56.471a6.5 6.5 0 11-13 0 6.5 6.5 0 0113 0zM1019 109.5a6.5 6.5 0 11-13 0 6.5 6.5 0 0113 0zm116-102a6.5 6.5 0 11-13 0 6.5 6.5 0 0113 0zm114.95 80.697a6.5 6.5 0 11-13 0 6.5 6.5 0 0113 0zm110.96 127.323a6.5 6.5 0 11-13 0 6.5 6.5 0 0113 0zM1470 256.5a6.5 6.5 0 11-13 0 6.5 6.5 0 0113 0zm117-119a6.5 6.5 0 11-13 0 6.5 6.5 0 0113 0zm107-116a6.5 6.5 0 11-13 0 6.5 6.5 0 0113 0zm116.39 25.452a6.5 6.5 0 11-13 0 6.5 6.5 0 0113 0zm114.72 14.346a6.5 6.5 0 11-13 0 6.5 6.5 0 0113 0z" fill="#fff" stroke="#2B69DD" stroke-width="2"/></g><defs><linearGradient id="paint0_linear" x1="134.85" y1="149.286" x2="134.85" y2="491.181" gradientUnits="userSpaceOnUse"><stop stop-color="#F31818"/><stop offset="1" stop-color="#5D7EF7" stop-opacity=".01"/></linearGradient><linearGradient id="paint1_linear" x1="5.959" y1="4.988" x2="5.959" y2="407" gradientUnits="userSpaceOnUse"><stop stop-color="#3A96FD"/><stop offset="1" stop-color="#2E5BFF" stop-opacity=".01"/></linearGradient><clipPath id="clip0"><path fill="#fff" transform="translate(0 144)" d="M0 0h1920v400H0z"/></clipPath><clipPath id="clip1"><path fill="#fff" transform="translate(1)" d="M0 0h1917v407H0z"/></clipPath></defs></svg>