<svg width="170" height="72" fill="none" xmlns="http://www.w3.org/2000/svg"><g clip-path="url(#clip0)"><path d="M7.862 16L39.31 8.5v48L7.862 64V16z" fill="#DE9902"/><path d="M7.862 16L39.31 8.5v48L7.862 64V16z" fill="#DE9902"/><path d="M7.862 16h47.17v48H7.863V16z" fill="#FBAC00"/><path d="M7.862 16h47.17v48H7.863V16z" fill="#FBAC00"/><path fill-rule="evenodd" clip-rule="evenodd" d="M32.302 32.6c-2.271 0-4.205 1.481-4.915 3.549l-.353 1.03-.977-.448a4.868 4.868 0 00-2.032-.44c-2.74 0-4.96 2.259-4.96 5.047v.615c0 2.787 2.22 5.047 4.96 5.047H39.74c2.183 0 3.953-1.8 3.953-4.022 0-2.222-1.77-4.023-3.953-4.023h-2.234v-1.06c0-2.924-2.33-5.295-5.203-5.295zm-6.377 1.959c1.19-2.35 3.598-3.959 6.377-3.959 3.646 0 6.657 2.77 7.11 6.355h.327c3.269 0 5.918 2.697 5.918 6.023 0 3.326-2.65 6.022-5.918 6.022H24.025C20.2 49 17.1 45.845 17.1 41.953v-.615c0-3.893 3.1-7.048 6.925-7.048a6.82 6.82 0 011.9.269z" fill="#fff"/><path d="M69.293 59.398h2.23v-8.381c0-2.7 1.796-4.631 4.17-4.631 2.376 0 3.853 1.62 3.853 4.375v8.637h2.201V50.93c0-2.897 1.882-4.545 4.141-4.545 2.433 0 3.881 1.59 3.881 4.432v8.58H92v-9.092c0-3.636-2.114-5.909-5.56-5.909-2.607 0-4.2 1.307-5.271 2.926-.811-1.648-2.375-2.926-4.808-2.926-2.52 0-3.852 1.335-4.837 2.784v-2.47h-2.23v14.688zM96.899 41.5h2.549v-2.416h-2.549V41.5zm.145 17.898h2.23V44.71h-2.23v14.688zm7.405 0h2.23v-8.41c0-2.756 1.912-4.602 4.489-4.602 2.636 0 4.142 1.704 4.142 4.432v8.58h2.23v-9.12c0-3.495-2.114-5.88-5.734-5.88-2.578 0-4.142 1.277-5.127 2.868V44.71h-2.23v14.688zM122.354 41.5h2.548v-2.416h-2.548V41.5zm.145 17.898h2.23V44.71h-2.23v14.688zm7.405 0h2.23v-8.41c0-2.756 1.912-4.602 4.489-4.602 2.636 0 4.142 1.704 4.142 4.432v8.58h2.23v-9.12c0-3.495-2.114-5.88-5.735-5.88-2.577 0-4.141 1.277-5.126 2.868V44.71h-2.23v14.688zM154.383 64c2.375 0 4.373-.653 5.706-1.96 1.216-1.194 1.911-2.926 1.911-5.2V44.71h-2.23v2.642c-1.216-1.591-3.041-2.955-5.85-2.955-3.563 0-7.038 2.642-7.038 6.932 0 4.29 3.446 6.932 7.038 6.932 2.751 0 4.576-1.392 5.879-3.097v1.733c0 3.438-2.143 5.228-5.445 5.228-2.143 0-4.055-.654-5.763-1.875l-1.014 1.705c1.998 1.363 4.315 2.045 6.806 2.045zm-.029-7.67c-2.78 0-5.184-2.046-5.184-5 0-3.07 2.346-5.001 5.184-5.001s5.503 1.96 5.503 4.972c0 3.011-2.665 5.028-5.503 5.028zM75.8 31.512c4.54 0 7.888-3.562 7.888-7.756 0-4.251-3.318-7.756-7.83-7.756C71.319 16 68 19.562 68 23.756c0 4.252 3.289 7.756 7.8 7.756zm.059-1.982c-3.173 0-5.56-2.585-5.56-5.774s2.241-5.803 5.501-5.803c3.173 0 5.589 2.614 5.589 5.803s-2.27 5.774-5.53 5.774zm11.889 6.234h2.241v-7.44c1.164 1.666 2.969 3.16 5.763 3.16 3.638 0 7.189-2.873 7.189-7.728 0-4.94-3.58-7.756-7.189-7.756-2.765 0-4.54 1.523-5.763 3.303v-2.987h-2.241v19.448zm7.596-6.263c-2.794 0-5.442-2.298-5.442-5.745s2.648-5.774 5.442-5.774c2.853 0 5.298 2.24 5.298 5.745 0 3.648-2.387 5.774-5.297 5.774zm13.071-4.855h11.933c.029-.344.029-.574.029-.775 0-4.366-2.561-7.871-7.014-7.871-4.162 0-7.218 3.447-7.218 7.756 0 4.625 3.376 7.756 7.509 7.756 2.852 0 4.686-1.12 6.199-2.786l-1.397-1.236c-1.222 1.264-2.677 2.097-4.744 2.097-2.649 0-4.977-1.81-5.297-4.94zm0-1.78c.32-2.873 2.299-4.999 4.89-4.999 2.968 0 4.54 2.298 4.802 4.998h-9.692zm15.886 8.301h2.241v-8.503c0-2.786 1.921-4.653 4.511-4.653 2.649 0 4.162 1.723 4.162 4.481v8.675h2.242v-9.22c0-3.534-2.125-5.947-5.763-5.947-2.591 0-4.162 1.293-5.152 2.901v-2.585h-2.241v14.851z" fill="#333"/></g><defs><clipPath id="clip0"><path fill="#fff" d="M0 0h170v72H0z"/></clipPath></defs></svg>