<svg width="819" height="1101" fill="none" xmlns="http://www.w3.org/2000/svg"><g clip-path="url(#clip0)"><path opacity=".8" fill-rule="evenodd" clip-rule="evenodd" d="M34.23 261.153C-.715 538.737 169.77 695.132 260.399 742.766c278.858 146.565 112.175 316.604 366.578 339.704 63.731 5.78 176.135-96.447 191.622-102.252 25.61-9.6 13.508-62.836 50.196-140.359 36.688-77.524 45.918-71.583 110.622-68.981 0 0 63.253-21.396 65.253-71.587 2-50.193 198.58-501.919-64.724-562.781C732.562 79.328 677.143 94.34 332.114 19.261 232.13-2.495 69.174-16.432 34.23 261.153z" fill="#F8DB73"/></g><defs><clipPath id="clip0"><path fill="#fff" d="M0 0h819v1101H0z"/></clipPath></defs></svg>