<svg width="148" height="99" fill="none" xmlns="http://www.w3.org/2000/svg"><path d="M73.392 39.184L40.408 94.618c-1.159 1.948.29 4.382 2.607 4.382h65.97c2.318 0 3.766-2.434 2.607-4.382L78.607 39.184c-1.159-1.947-4.056-1.947-5.215 0z" fill="#2B69DD"/><g filter="url(#filter0_d)"><path d="M28.953 26.412l-4.107-14.477c-.266-.937-1.507-1.251-2.233-.565L11.392 21.968c-.727.686-.394 1.858.598 2.109l15.328 3.879c.993.25 1.901-.607 1.635-1.544z" fill="#2B69DD"/></g><path d="M76 75.51c-1.842 0-3.362-1.351-3.463-3.079l-.766-13.151C71.638 57 73.57 55.085 76 55.085s4.362 1.916 4.229 4.195l-.766 13.151c-.1 1.728-1.621 3.08-3.463 3.08zm0 15.32c2.339 0 4.235-1.6 4.235-3.575 0-1.974-1.896-3.574-4.235-3.574-2.34 0-4.235 1.6-4.235 3.574 0 1.974 1.896 3.575 4.235 3.575zM76 3c-13.1 0-25.39 3.488-36 9.5L51.398 32A49.889 49.889 0 0176 25.554c8.941 0 17.34 2.345 24.602 6.446L112 12.449C101.39 6.436 89.1 3 76 3z" fill="#FBAC00"/><path d="M15.117 99c4.386 0 7.942-3.43 7.942-7.66s-3.556-7.66-7.942-7.66c-4.385 0-7.94 3.43-7.94 7.66S10.731 99 15.116 99z" fill="#87B645"/><path d="M111.674 13.213L100.353 31.76c14.522 7.833 24.468 22.421 25.021 39.209.027.823.736 1.478 1.607 1.478h19.408c.905 0 1.631-.706 1.611-1.562-.587-24.702-15.06-46.163-36.326-57.672zM136.883 99c4.385 0 7.941-3.43 7.941-7.66s-3.556-7.66-7.941-7.66c-4.386 0-7.942 3.43-7.942 7.66s3.556 7.66 7.942 7.66z" fill="red"/><path d="M40.326 13.213a72.374 72.374 0 00-11.912 8.067l1.735 6.124c.275.97-.663 1.856-1.688 1.596l-6.474-1.64C11.119 39.016 4.396 54.213 4 70.888c-.02.854.708 1.558 1.611 1.558H25.02c.87 0 1.579-.655 1.606-1.478.553-16.788 10.499-31.376 25.021-39.21l-11.32-18.546z" fill="#87B645"/><defs><filter id="filter0_d" x="0" y="0" width="48" height="47" filterUnits="userSpaceOnUse" color-interpolation-filters="sRGB"><feFlood flood-opacity="0" result="BackgroundImageFix"/><feColorMatrix in="SourceAlpha" values="0 0 0 0 0 0 0 0 0 0 0 0 0 0 0 0 0 0 127 0"/><feOffset dx="4" dy="4"/><feGaussianBlur stdDeviation="7.5"/><feColorMatrix values="0 0 0 0 0 0 0 0 0 0 0 0 0 0 0 0 0 0 0.25 0"/><feBlend in2="BackgroundImageFix" result="effect1_dropShadow"/><feBlend in="SourceGraphic" in2="effect1_dropShadow" result="shape"/></filter></defs></svg>