<svg width="108" height="102" fill="none" xmlns="http://www.w3.org/2000/svg"><path d="M108 10.549v16.826H87.958V10.549C87.948 4.732 92.42.009 97.945 0h.05c5.519 0 9.995 4.705 10.005 10.515v.034z" fill="#2B69DD"/><path d="M25.888 0h72.057c-5.524.01-9.996 4.732-9.986 10.549v77.29C87.948 95.664 81.922 102 74.49 102h-.04c-.312 0-.62-.012-.927-.035-7.06-.52-12.534-6.705-12.526-14.156v-9.165h-45.13v-.127l.476-68.596C16.344 4.396 20.64 0 25.888 0zm39.268 33.541V19.982L50.954 12.64l-14.198 7.322v13.58c0 3.475 2.137 7.73 4.866 9.691l9.333 6.698 9.332-6.698c2.729-1.96 4.869-6.216 4.869-9.69z" fill="#87B645"/><path d="M73.524 101.965l-.002.035H13.468C6.036 102 .008 95.663 0 87.84v-9.196h60.998v9.165c-.008 7.451 5.465 13.636 12.526 14.156zm-8.368-81.983v13.559c0 3.474-2.14 7.73-4.87 9.69l-9.332 6.699-9.332-6.698c-2.729-1.96-4.867-6.217-4.867-9.691V19.96l14.2-7.322 14.2 7.343zm8.258 40.76H30.07c-.997 0-1.806-.85-1.806-1.9 0-1.05.809-1.902 1.806-1.902h43.343c.997 0 1.806.852 1.806 1.902 0 1.05-.809 1.9-1.806 1.9zm0 8.792H30.07c-.997 0-1.806-.85-1.806-1.9 0-1.05.809-1.902 1.806-1.902h43.343c.997 0 1.806.852 1.806 1.901 0 1.051-.809 1.901-1.806 1.901z" fill="#2B69DD"/><path d="M49.18 36.968h-.004a1.764 1.764 0 01-1.279-.563l-3.635-3.865a1.97 1.97 0 01-.472-1.846 1.856 1.856 0 011.29-1.345 1.747 1.747 0 011.75.516l2.357 2.506 5.902-6.21a1.742 1.742 0 012.554 0 1.972 1.972 0 010 2.689l-7.185 7.561c-.34.356-.799.557-1.278.557z" fill="#FBAC00"/></svg>