<svg width="117" height="91" fill="none" xmlns="http://www.w3.org/2000/svg"><path d="M117 80.224v3.592c0 3.968-5.419 7.184-12.103 7.184H12.103C5.42 91 0 87.784 0 83.816v-3.592c0-.662.903-1.198 2.017-1.198h112.966c1.114 0 2.017.536 2.017 1.198z" fill="#2B69DD"/><path d="M38.188 78.813h40.624v2.275c0 1.884-2.728 3.412-6.093 3.412H44.28c-3.365 0-6.093-1.528-6.093-3.412v-2.275z" fill="#75ACFE"/><path d="M9.75 85.313a1.625 1.625 0 110-3.25 1.625 1.625 0 010 3.25z" fill="#FBAC00"/><path d="M16.25 85.313a1.625 1.625 0 110-3.25 1.625 1.625 0 010 3.25z" fill="#E64C3C"/><path d="M28.113 85.313h-5.85c-1.078 0-1.95-.728-1.95-1.626 0-.897.873-1.624 1.95-1.624h5.85c1.076 0 1.95.727 1.95 1.624 0 .898-.873 1.626-1.95 1.626z" fill="#75ACFE"/><path d="M112.993 7.351v71.675H4.007V7.351C4.007 3.291 7.62 0 12.08 0h92.84c4.459 0 8.073 3.291 8.073 7.351z" fill="#2B69DD"/><path d="M103.377 7.982c-12.226.403-89.886 5.087-91.34 64.658a.822.822 0 010-.321V9.993c0-1.11.904-2.01 2.02-2.01h89.32z" fill="#75ACFE"/><path d="M104.979 9.99v62.24a2.015 2.015 0 01-2.021 2.007H14.041c-.491 0-.965-.18-1.334-.502a2.005 2.005 0 01-.687-1.104c1.455-59.57 79.116-64.247 91.342-64.649.342.08.661.238.93.462.447.39.698.955.687 1.546z" fill="#75ACFE"/><rect opacity=".4" x="34.573" y="45.158" width="48.082" height="1.825" rx=".912" fill="#2B69DD"/><path fill-rule="evenodd" clip-rule="evenodd" d="M75.865 37.139c2.36 9.427-3.4 18.974-12.863 21.325-9.464 2.35-19.049-3.387-21.409-12.814-2.36-9.427 3.4-18.974 12.864-21.324 9.463-2.35 19.048 3.386 21.408 12.813z" fill="#FFC246"/><path fill-rule="evenodd" clip-rule="evenodd" d="M65.816 37.159c-.246-2.486-2.384-3.33-5.091-3.576l-.006-3.44-2.135-.009v3.372l-1.661.012-.014-3.38-2.09-.01.007 3.44-4.216.015.047 2.236s1.544-.028 1.517.002a1.114 1.114 0 011.199.918l.086 9.453a.742.742 0 01-.783.7l-1.627.014-.41 2.51 2.728.01 1.498.019-.005 3.442 2.087-.002-.006-3.44 1.703.06.005 3.439 2.1.006-.009-3.496c3.523-.187 5.98-1.073 6.279-4.393.242-2.675-.973-3.887-3.007-4.357a3.258 3.258 0 001.804-3.545zm-2.909 7.467c.005 2.614-4.464 2.255-5.865 2.305l-.008-4.586c1.372-.031 5.818-.447 5.83 2.291l.043-.01zm-.996-6.532c.012 2.371-3.713 2.07-4.883 2.085l-.056-4.185c1.187.004 4.892-.366 4.896 2.11l.043-.01z" fill="#fff"/><rect x="33.886" y="46.526" width="49.456" height="1.825" rx=".912" fill="#2B69DD"/><path fill="#75ACFE" d="M39.153 48.351h36.405v16.421H39.153z"/><rect x="52.204" y="15.737" width="1.832" height="7.07" rx=".916" fill="#2B69DD"/><rect x="57.699" y="10.263" width="1.832" height="10.947" rx=".916" fill="#2B69DD"/><rect x="63.194" y="12.088" width="1.832" height="3.649" rx=".916" fill="#2B69DD"/><g filter="url(#filter0_d)" clip-path="url(#clip0)"><path fill-rule="evenodd" clip-rule="evenodd" d="M58.614 68.65c4.173 0 7.556-3.37 7.556-7.527s-3.383-7.526-7.556-7.526-7.555 3.37-7.555 7.526c0 4.157 3.382 7.526 7.555 7.526z" fill="#098B50"/><path d="M61.164 58.799a.553.553 0 01.797-.029c.228.22.24.587.028.822l-3.95 4.357a.553.553 0 01-.779.045l-1.974-1.743a.593.593 0 01-.062-.82.553.553 0 01.796-.063l1.564 1.381 3.58-3.95z" fill="#fff"/></g><defs><clipPath id="clip0"><path fill="#fff" transform="translate(48.54 51.088)" d="M0 0h20.149v20.07H0z"/></clipPath><filter id="filter0_d" x="47.059" y="50.597" width="23.111" height="23.053" filterUnits="userSpaceOnUse" color-interpolation-filters="sRGB"><feFlood flood-opacity="0" result="BackgroundImageFix"/><feColorMatrix in="SourceAlpha" values="0 0 0 0 0 0 0 0 0 0 0 0 0 0 0 0 0 0 127 0"/><feOffset dy="1"/><feGaussianBlur stdDeviation="2"/><feColorMatrix values="0 0 0 0 0.2 0 0 0 0 0.2 0 0 0 0 0.2 0 0 0 0.25 0"/><feBlend in2="BackgroundImageFix" result="effect1_dropShadow"/><feBlend in="SourceGraphic" in2="effect1_dropShadow" result="shape"/></filter></defs></svg>