<svg width="176" height="128" fill="none" xmlns="http://www.w3.org/2000/svg"><path fill-rule="evenodd" clip-rule="evenodd" d="M64.279 27.538C72.945 11.19 90.483 0 110.724 0c26.558 0 48.485 19.27 51.787 44.209h2.382c23.808 0 43.107 18.757 43.107 41.895C208 109.243 188.7 128 164.893 128H50.443C22.584 128 0 106.05 0 78.974v-4.278C0 47.619 22.584 25.67 50.443 25.67c4.791 0 9.434.65 13.836 1.868z" fill="#E1E1E1"/><path fill-rule="evenodd" clip-rule="evenodd" d="M136 69.5c0 13.531-10.969 24.5-24.5 24.5S87 83.031 87 69.5 97.969 45 111.5 45 136 55.969 136 69.5z" fill="#E7E9E8"/><path fill-rule="evenodd" clip-rule="evenodd" d="M121.896 62.93c-.22-3.386-3.234-4.418-7.092-4.597l.173-4.706-3.052.111-.178 4.614-2.377.112.159-4.624-2.987.109-.174 4.705-6.029.265-.051 3.057s2.209-.128 2.169-.085c.826-.108 1.552.409 1.667 1.186l-.377 12.929c-.026.27-.162.529-.379.717-.217.188-.497.29-.777.285l-2.328.113-.718 3.459 3.901-.144 2.142-.062-.189 4.71 2.984-.123.173-4.706 2.431-.018-.173 4.706 3.002-.113.173-4.784c5.047-.459 8.609-1.813 9.21-6.373.488-3.674-1.186-5.263-4.07-5.788 1.941-.94 3.077-2.973 2.767-4.954zm-4.545 10.56c-.13 3.529-6.418 3.3-8.399 3.446l.227-6.192c1.938-.12 8.235-.935 8.111 2.762l.061-.017zm-1.387-9.066c-.106 3.209-5.357 3.012-7.012 3.1l.139-5.66c1.678-.063 6.935-.775 6.812 2.577l.061-.017z" fill="#E1E1E1"/></svg>