<svg width="128" height="128" fill="none" xmlns="http://www.w3.org/2000/svg"><path fill-rule="evenodd" clip-rule="evenodd" d="M64 128c35.346 0 64-28.654 64-64 0-35.346-28.654-64-64-64C28.654 0 0 28.654 0 64c0 35.346 28.654 64 64 64z" fill="#87B645"/><path d="M85.594 44.236a4.67 4.67 0 016.755-.24c1.929 1.86 2.033 4.987.232 6.982L59.131 88.03c-1.747 1.936-4.66 2.103-6.604.38L35.802 73.59c-2.004-1.776-2.236-4.895-.518-6.967 1.717-2.071 4.734-2.311 6.738-.536l13.247 11.74 30.325-33.591z" fill="#fff"/></svg>