<svg width="136" height="128" fill="none" xmlns="http://www.w3.org/2000/svg"><rect width="144" height="128" rx="8" fill="#E1E1E1"/><rect x="19.636" y="12.8" width="19.636" height="6.4" rx="3.2" fill="#E7E9E8"/><rect x="45.818" y="12.8" width="6.545" height="6.4" rx="3.2" fill="#E7E9E8"/><rect x="58.909" y="12.8" width="6.545" height="6.4" rx="3.2" fill="#E7E9E8"/><rect x="19.636" y="32" width="19.636" height="6.4" rx="3.2" fill="#E7E9E8"/><rect x="45.818" y="32" width="6.545" height="6.4" rx="3.2" fill="#E7E9E8"/><rect x="58.909" y="32" width="6.545" height="6.4" rx="3.2" fill="#E7E9E8"/><rect x="19.636" y="51.2" width="19.636" height="6.4" rx="3.2" fill="#E7E9E8"/><rect x="45.818" y="51.2" width="6.545" height="6.4" rx="3.2" fill="#E7E9E8"/><rect x="58.909" y="51.2" width="6.545" height="6.4" rx="3.2" fill="#E7E9E8"/><rect x="19.636" y="70.4" width="19.636" height="6.4" rx="3.2" fill="#E7E9E8"/><rect x="45.818" y="70.4" width="6.545" height="6.4" rx="3.2" fill="#E7E9E8"/><rect x="58.909" y="70.4" width="6.545" height="6.4" rx="3.2" fill="#E7E9E8"/><rect x="19.636" y="89.6" width="19.636" height="6.4" rx="3.2" fill="#E7E9E8"/><rect x="45.818" y="89.6" width="6.545" height="6.4" rx="3.2" fill="#E7E9E8"/><rect x="58.909" y="89.6" width="6.545" height="6.4" rx="3.2" fill="#E7E9E8"/><rect x="19.636" y="108.8" width="19.636" height="6.4" rx="3.2" fill="#E7E9E8"/><rect x="45.818" y="108.8" width="6.545" height="6.4" rx="3.2" fill="#E7E9E8"/><rect x="58.909" y="108.8" width="6.545" height="6.4" rx="3.2" fill="#E7E9E8"/><ellipse cx="112.909" cy="40" rx="27.818" ry="27.2" fill="#E7E9E8"/><path d="M131.545 40c0 10.03-8.322 18.2-18.636 18.2S94.272 50.03 94.272 40s8.323-18.2 18.637-18.2 18.636 8.17 18.636 18.2z" stroke="#E1E1E1" stroke-width="2"/><path d="M121.727 40c0 4.728-3.927 8.6-8.818 8.6s-8.818-3.872-8.818-8.6c0-4.729 3.927-8.6 8.818-8.6s8.818 3.871 8.818 8.6z" stroke="#E1E1E1" stroke-width="2"/><path fill="#E1E1E1" d="M112.091 12.8h1.636v54.4h-1.636z"/><path fill="#E1E1E1" d="M140.727 39.2v1.6H85.091v-1.6z"/><path fill="#E1E1E1" d="M133.412 58.426l-1.15 1.138L92.65 21.327l1.15-1.139z"/><path fill="#E1E1E1" d="M92.65 58.426l1.15 1.138 39.613-38.237-1.15-1.139z"/></svg>