<svg width="128" height="128" fill="none" xmlns="http://www.w3.org/2000/svg"><path fill-rule="evenodd" clip-rule="evenodd" d="M64 128c35.346 0 64-28.654 64-64 0-35.346-28.654-64-64-64C28.654 0 0 28.654 0 64c0 35.346 28.654 64 64 64z" fill="#EB5757"/><path d="M59.72 76.003c.052-3.099.407-5.546 1.065-7.343.658-1.796 2-3.788 4.025-5.975l5.169-5.272c2.21-2.474 3.314-5.13 3.314-7.967 0-2.734-.723-4.87-2.17-6.405-1.447-1.563-3.551-2.344-6.313-2.344-2.683 0-4.84.703-6.471 2.11-1.631 1.405-2.447 3.293-2.447 5.662h-7.3c.053-4.218 1.566-7.615 4.538-10.193 3-2.604 6.892-3.905 11.68-3.905 4.971 0 8.838 1.328 11.6 3.983 2.789 2.63 4.183 6.249 4.183 10.857 0 4.557-2.13 9.048-6.392 13.474L69.9 66.903c-1.92 2.109-2.88 5.142-2.88 9.1h-7.3zm-.316 12.38c0-1.172.355-2.148 1.065-2.93.737-.806 1.816-1.21 3.236-1.21 1.42 0 2.499.404 3.236 1.21.736.782 1.104 1.758 1.104 2.93 0 1.172-.368 2.148-1.105 2.93-.736.754-1.814 1.132-3.235 1.132-1.42 0-2.499-.378-3.236-1.133-.71-.781-1.065-1.757-1.065-2.929z" fill="#E7E9E8"/></svg>